<svg width="15" height="16" viewBox="0 0 15 16" fill="none" xmlns="http://www.w3.org/2000/svg">
<path d="M6.06 7.60984C6.0975 7.36234 6.18 7.14484 6.285 6.95734C6.39 6.76984 6.54 6.61234 6.7275 6.49234C6.9075 6.37984 7.1325 6.32734 7.41 6.31984C7.5825 6.32734 7.74 6.35734 7.8825 6.41734C8.0325 6.48484 8.1675 6.57484 8.2725 6.68734C8.3775 6.79984 8.46 6.93484 8.5275 7.08484C8.595 7.23484 8.625 7.39984 8.6325 7.56484H9.975C9.96 7.21234 9.8925 6.88984 9.765 6.59734C9.6375 6.30484 9.465 6.04984 9.24 5.83984C9.015 5.62984 8.745 5.46484 8.43 5.34484C8.115 5.22484 7.77 5.17234 7.3875 5.17234C6.9 5.17234 6.4725 5.25484 6.1125 5.42734C5.7525 5.59984 5.4525 5.82484 5.2125 6.11734C4.9725 6.40984 4.7925 6.74734 4.68 7.13734C4.5675 7.52734 4.5 7.93234 4.5 8.36734V8.56984C4.5 9.00484 4.56 9.40984 4.6725 9.79984C4.785 10.1898 4.965 10.5273 5.205 10.8123C5.445 11.0973 5.745 11.3298 6.105 11.4948C6.465 11.6598 6.8925 11.7498 7.38 11.7498C7.7325 11.7498 8.0625 11.6898 8.37 11.5773C8.6775 11.4648 8.9475 11.3073 9.18 11.1048C9.4125 10.9023 9.6 10.6698 9.735 10.3998C9.87 10.1298 9.9525 9.84484 9.96 9.53734H8.6175C8.61 9.69484 8.5725 9.83734 8.505 9.97234C8.4375 10.1073 8.3475 10.2198 8.235 10.3173C8.1225 10.4148 7.995 10.4898 7.845 10.5423C7.7025 10.5948 7.5525 10.6098 7.395 10.6173C7.125 10.6098 6.9 10.5573 6.7275 10.4448C6.54 10.3248 6.39 10.1673 6.285 9.97984C6.18 9.79234 6.0975 9.56734 6.06 9.31984C6.0225 9.07234 6 8.81734 6 8.56984V8.36734C6 8.10484 6.0225 7.85734 6.06 7.60984ZM7.5 0.964844C3.36 0.964844 0 4.32484 0 8.46484C0 12.6048 3.36 15.9648 7.5 15.9648C11.64 15.9648 15 12.6048 15 8.46484C15 4.32484 11.64 0.964844 7.5 0.964844ZM7.5 14.4648C4.1925 14.4648 1.5 11.7723 1.5 8.46484C1.5 5.15734 4.1925 2.46484 7.5 2.46484C10.8075 2.46484 13.5 5.15734 13.5 8.46484C13.5 11.7723 10.8075 14.4648 7.5 14.4648Z" fill="#F7FAFD" fill-opacity="0.6"/>
</svg>
