<svg width="18" height="18" viewBox="0 0 18 18" fill="none" xmlns="http://www.w3.org/2000/svg">
<path d="M9.00037 12.2612C10.8013 12.2612 12.2612 10.8013 12.2612 9.00037C12.2612 7.19944 10.8013 5.7395 9.00037 5.7395C7.19944 5.7395 5.7395 7.19944 5.7395 9.00037C5.7395 10.8013 7.19944 12.2612 9.00037 12.2612Z" stroke="#171A1A" stroke-width="1.2" stroke-miterlimit="10"/>
<path d="M12.587 1.5H5.41304C3.25193 1.5 1.5 3.25193 1.5 5.41304V12.587C1.5 14.7481 3.25193 16.5 5.41304 16.5H12.587C14.7481 16.5 16.5 14.7481 16.5 12.587V5.41304C16.5 3.25193 14.7481 1.5 12.587 1.5Z" stroke="#171A1A" stroke-width="1.2" stroke-linecap="round" stroke-linejoin="round"/>
<path d="M13.617 4.7611C13.617 4.97001 13.4477 5.13936 13.2388 5.13936C13.0299 5.13936 12.8605 4.97001 12.8605 4.7611C12.8605 4.55219 13.0299 4.38284 13.2388 4.38284C13.4477 4.38284 13.617 4.55219 13.617 4.7611Z" fill="#171A1A" stroke="#171A1A" stroke-width="1.2"/>
</svg>
