<svg width="20" height="14" viewBox="0 0 20 14" fill="none" xmlns="http://www.w3.org/2000/svg">
<path d="M16.6671 5.57809C15.8896 5.76511 15.0472 5.79222 14.248 5.73772C14.0114 5.72159 13.788 5.61001 13.5491 5.60494V5.55124C14.0839 5.55083 14.6905 5.31475 15.1733 5.09581C16.4792 4.50358 17.516 3.6685 18.1506 2.35642C18.3078 2.03146 18.3673 1.66886 18.4949 1.33622C17.2414 1.33622 15.9748 1.30154 14.7314 1.38847C14.1272 1.4307 13.554 1.37907 12.9578 1.51554C12.4009 1.64301 11.8883 1.80933 11.4185 2.14766C11.2734 2.25212 11.1208 2.37768 11.0092 2.51724C10.9676 2.56921 10.9158 2.67319 10.8375 2.67112C10.7278 2.66825 10.6141 2.52346 10.5341 2.46214C10.3131 2.2926 10.0732 2.16508 9.83741 2.01946C9.30886 1.693 8.56746 1.467 7.95588 1.39338C7.1269 1.29359 6.35146 1.39948 5.54159 1.57852C5.04887 1.68744 4.53271 1.95892 4.11001 2.22793C1.79766 3.69959 0.911625 6.65934 1.91195 9.18701C2.73387 11.2639 4.84728 12.5593 7.01752 12.6647C8.65814 12.7443 10.2249 11.9839 11.3405 10.8187C11.6334 10.5128 11.8935 10.1409 12.0973 9.77045C12.1789 9.62207 12.2598 9.32009 12.4237 9.24924C12.5826 9.18056 12.8333 9.20043 13.007 9.16867C13.338 9.1081 13.6658 9.01145 13.9771 8.8799C14.9265 8.47859 15.6918 7.80757 16.1787 6.89294C16.4027 6.47221 16.523 6.02797 16.6671 5.57809Z" stroke="#171A1A" stroke-width="1.2"/>
<circle cx="7.10889" cy="7" r="1.60166" stroke="#171A1A" stroke-width="1.2"/>
</svg>
